<?xml version="1.0" encoding="utf-8"?>
<!-- Generator: Adobe Illustrator 16.0.0, SVG Export Plug-In . SVG Version: 6.00 Build 0)  -->
<!DOCTYPE svg PUBLIC "-//W3C//DTD SVG 1.1//EN" "http://www.w3.org/Graphics/SVG/1.1/DTD/svg11.dtd">
<svg version="1.1" id="Layer_1" xmlns="http://www.w3.org/2000/svg" xmlns:xlink="http://www.w3.org/1999/xlink" x="0px" y="0px"
	 width="412.465px" height="217.078px" viewBox="575.368 -13.5 412.465 217.078"
	 enable-background="new 575.368 -13.5 412.465 217.078" xml:space="preserve">
<g id="Layer_1_1_">
</g>
<image display="none" overflow="visible" width="1366" height="768" xlink:href="2FFCF24B.jpg"  transform="matrix(1 0 0 1 -286 -95)">
</image>
<g id="Layer_2">
	<g>
		<path d="M706.017,384.507c0.386-0.096,0.231-0.102-0.136-0.064C705.925,384.489,705.971,384.519,706.017,384.507z"/>
		<path d="M1018.682,423.022v-12.426c0,0,4.971-13.357-0.312-15.844c0,0-3.02-3.727-8.077-3.727c-1.554,0-7.145-1.244-7.145-1.244
			l-0.934,1.865l-1.553-2.176l-2.796-1.242l-10.873-18.639c0,0-2.797-16.152-17.707-24.23c0,0,2.485-2.795,1.554-2.795
			c-0.643,0,1.227-0.295,2.04-0.377c-1.006-1.109-1.605-17.207-2.535-21.135c2.372,2.623,12.153,10.326,11.368,10.326
			c-0.933,0-1.242,7.455,1.863,9.01c3.106,1.555-0.311,7.455,0,9.318c0.312,1.865,9.941,12.115,10.873,15.533s0.62,14.6,4.97,16.775
			c4.351,2.174,20.191,10.252,18.019-13.357c0,0-5.593-10.564-6.523-10.564s-1.242-12.113-1.242-12.113s-5.279-7.768-9.63-9.32
			l-1.864,0.313c0,0-4.038-10.563-7.145-10.563l-1.864-6.523c0,0-5.281-12.426-5.901-12.426c-0.621,0,3.728-13.049-15.532-25.164
			c0,0,1.32-2.645,0.788-2.559c2.359-1.279,25.993-16.043,13.502-46.833c0,0-4.661-3.417-4.039-3.417s-12.426-46.286-13.357-45.976
			c-0.931,0.31-4.039-4.66-1.863-8.077c0,0,5.9-9.63,0.311-10.251l-2.484-14.6c0,0,9.94-22.366,10.251-31.996l-0.311-8.387
			c0,0,7.456-6.834,7.456-17.396l0.62-36.037c0,0,4.66-14.29,5.592-13.979s4.038-13.358,4.038-13.358s0.552-4.267-0.201-7.784
			c-1.22-13.45-12.521-23.989-26.289-23.989c-14.584,0-26.405,11.822-26.405,26.405s11.821,26.405,26.405,26.405
			c2.228,0,4.388-0.279,6.453-0.798c-0.496,1.874-0.457,3.688,0.777,4.923l-0.312,4.039c0,0-11.493,34.792-9.318,44.112
			c0,0-12.427,16.464-9.94,22.056c0,0-3.466,1.65-6.908,4.95c-1.281,1.228-2.56,2.684-3.654,4.369l-1.241,0.932l-1.864-4.039
			l3.105-2.174l1.863-0.622c0,0,3.729-8.698-0.621-8.698l-1.242-13.668c0,0-1.241-7.145-12.735-9.319
			c0,0-11.494-0.621-13.979,12.115l-0.933,6.523c0,0-4.35,15.221,1.554,18.949l1.242-0.311l-0.311,10.873l-20.503,5.902
			c0,0-9.94,3.417-13.357,11.183c0,0-13.048,10.562-16.464,15.532c0,0-12.115-14.911-10.873-23.609c0,0,3.727-7.145,2.483-10.562
			l-3.104-5.281v-9.63c0,0-0.621-2.485-2.796-0.311c-2.175,2.174-0.934,4.97-0.934,4.97l-1.241,2.485l-1.242-9.94
			c0,0-3.106-8.387-5.281-7.456c-2.175,0.931-2.175,0.932-2.175,0.932H835.4l-0.312,3.728l-2.795,0.621c0,0,0.312,4.349,2.174,9.319
			c1.863,4.97-0.311,4.349-0.311,4.349l-1.863-5.592c0,0-1.244-2.795-1.864-0.932c-0.621,1.863,1.864,13.047,5.28,17.396
			c3.418,4.349,15.844,48.461,19.261,50.014c3.418,1.553,7.146,1.864,12.427-1.864s10.872-7.145,10.872-7.145
			s11.494-10.252,11.805-13.047h2.175c0,0,2.796,21.435,2.176,21.745c-0.621,0.31,14.909,42.559,15.843,51.567
			c0.933,9.008,0.622,20.191,0.622,20.191s1.242,8.697,10.872,6.213l-0.622,9.008c0,0,18.328,55.916,21.436,57.471l4.97,1.555
			c0,0,0.313,5.59,0.313,7.766s11.494,10.252,13.047,13.668c1.553,3.418,6.834,8.076,10.251,11.184s17.086,21.125,18.018,21.125
			c0.933,0-2.176,2.482-1.242,3.105c0.933,0.621,4.971,2.484,4.971,2.484l-0.621,3.107c0,0-3.417,4.35-0.621,6.523
			s7.454,7.146,8.076,8.076c0.622,0.932,2.796,10.561,2.796,11.805c0,1.242,4.66,13.047,4.66,13.047s8.077,3.107,11.494,0.621
			c3.417-2.484,4.349-6.521,4.349-6.521S1023.031,427.683,1018.682,423.022z"/>
	</g>
	<g>
		<path d="M494.851,457.341c0,0-0.713-0.418-1.743-1.191C491.022,455.722,494.851,457.341,494.851,457.341z"/>
		<path d="M487.218,215.672C487.87,215.302,486.871,215.408,487.218,215.672L487.218,215.672z"/>
		<path d="M801.087,197.896c0.486-1.459-6.811-14.592-6.811-14.592s0.729-12.648,1.703-22.133
			c0.972-9.484-2.189-19.702-4.136-21.161c-1.945-1.459-2.676-0.729-5.106-6.566c-2.434-5.836-28.213-29.186-28.213-29.186
			s3.403-4.377,0-5.107c-3.404-0.729-10.944-3.891-12.404-5.837c-1.459-1.946-4.62-4.864-9.972-6.81
			c-5.353-1.946-4.378-4.621-9.973-8.27c-5.595-3.648-27.97-2.189-27.97-2.189l0.408-2.062l0.366-1.006
			c1.295-1.83,0.928-5.444,0.928-5.444l2.475-0.252l-0.285-4.369l1.459-4.621l1.217-4.621c0,0-0.242-0.973-2.432-0.244
			c-2.188,0.729-0.486,0-0.244,0c0.244,0-2.188-15.079-2.188-15.079c-2.188-5.837-9.241-8.269-9.241-8.269
			c-3.968-2.698-7.51-3.019-9.297-2.917c2.076-0.493,5.422-1.494-1.892,0.225c-9.241,2.172-13.377,10.961-13.377,10.961
			L664.4,54.399c-0.169-0.057-0.271-0.109-0.335-0.157c-0.245,0.141-0.725,0.349-1.61,0.644c-3.647,1.216-0.974,6.81-0.974,6.81
			c0.974,1.946,4.379,7.782,4.379,7.782l2.188,0.243l0.729,7.783l1.217,3.648c-5.352-0.973-13.863,6.81-13.863,6.81
			c-5.593,6.566-12.16,7.783-12.16,7.783l-7.541,5.352c0,0,3.162,1.216,4.136,0.973s-0.242,3.893-3.647,11.188
			c-3.405,7.297-6.323,8.512-11.431,17.268c-5.108,8.756-8.026,17.513-12.161,20.188c-4.136,2.676-19.7,5.107-19.7,5.107
			s-9.072,7.746-8.424,9.514c-2.017,1.709-3.783,3.697-5.244,5.908l-0.003,0.002h0.002c-0.917,1.389-1.715,2.861-2.374,4.408l0,0
			l0,0c-1.425,3.344-2.215,7.023-2.215,10.889c0,15.355,12.447,27.805,27.804,27.805c10.496,0,19.63-5.818,24.362-14.402h0.001
			h-0.001c2.19-3.975,3.44-8.541,3.44-13.4c0-4.232-0.949-8.24-2.642-11.832c0.105,0.039,0.212,0.066,0.315,0.082
			c3.403,0.486,2.918-1.217,2.918-1.217c-0.486-2.432-3.892-11.918-3.892-11.918l2.918-4.135
			c7.539-7.781,15.566-20.917,15.566-20.917c1.215-4.135,6.08-10.215,7.053-10.215s1.702,0.244,2.675,0
			c0.975-0.242,0.243,6.324,0.975,6.324c0.729,0,11.916,15.565,11.916,15.565s0.486,11.918-0.242,12.16
			c-0.729,0.244-2.189,1.215-2.189,1.215c-7.053,4.379-2.918,9.486-2.918,9.486l-38.913,45.24c-2.188,6.08-5.838,8.754-5.838,8.754
			s5.353,3.404,6.081,2.92c0.729-0.486-0.729,15.32-0.729,15.32c-10.458,6.08-15.81,41.348-15.81,41.348
			c-1.217,5.35,0.729,45.479,1.459,45.967c0.73,0.486-8.024,9.486-9.242,9.971c-1.216,0.486-8.512,5.109-8.512,5.109l-6.811,5.105
			c0,0-2.919,0-1.459,6.813c1.459,6.809,5.35,4.52,17.512,4.52c12.16,0,12.403-5.008,18.482-7.439
			c6.082-2.434,6.323-2.918,6.323-2.918L625,343.096l-1.216-1.947c0,0,0.973-2.432,1.702-2.674s0.485-6.566,0.485-6.566
			l-0.973-0.973c-3.404-6.813,2.676-22.619,2.676-22.619c7.539-9.486,14.836-44.266,14.105-44.508
			c-0.729-0.244,16.053-17.27,16.053-17.998s6.08,2.918,6.08,2.918l10.215-10.457c0,0-1.459,7.539-1.459,7.295
			c0-0.242-2.676,5.107-2.676,5.107l2.676,2.676l-1.945,2.188c-10.944,8.756-8.27,27.484-8.27,27.484
			c0.348,5.563,4.919,9.758,7.499,11.697c0.594,0.121,1.665,0.41,3.444,0.949c8.026,2.432,24.078-12.646,24.078-12.646
			c2.433,13.133,8.756,8.998,8.756,8.998c9.242,1.461,8.27-43.535,8.27-43.535c9.972-0.486,18.971-29.428,18.971-29.428
			c17.511-20.432,6.08-38.43,6.08-38.43c7.539-1.701,3.893-9.484,3.893-9.484l4.863-4.377l-2.432-9.729l2.188-3.648l-0.485-20.675
			l26.754,12.163c-1.946,3.646,5.594,20.43,5.594,20.43s0.729,22.377,0.974,22.377c0.241,0-2.188,8.998-2.188,8.998
			s-2.92,4.379-4.378,4.863c-6.092,2.029-3.405,5.596-3.405,5.596c0.972,2.188,8.999-2.92,8.999-2.92l-0.729,14.105
			c0.973,3.162,4.378,0.244,4.378,0.244l3.161-13.621h1.945l-0.242,1.945c0.972,3.893,5.106,13.621,5.106,13.621
			c3.162,0.729,3.404-1.945,3.404-1.945c-1.459-1.947-4.136-13.379-4.136-13.379l3.162,0.244c1.945,1.945,2.188,9.242,2.188,9.242
			c2.676,1.459,4.135,0,4.135,0l-0.974-9.242c0,0,1.945,0.486,2.676,0.486s2.189,4.377,2.189,4.377l2.141-0.973
			C808.335,202.762,800.601,199.355,801.087,197.896z M615.054,161.404c1.836,0.111,3.521,1.385,5.073,3.109
			C618.56,163.307,616.862,162.26,615.054,161.404z M613.326,160.199c0.498-0.332,0.769,0.355,0.892,0.826
			c-0.407-0.178-0.818-0.344-1.236-0.5C613.122,160.371,613.241,160.256,613.326,160.199z M607.612,159.096
			c-0.773-0.125-1.561-0.211-2.354-0.271c1.168-0.141,2.474-0.328,2.474-0.328L607.612,159.096z"/>
	</g>
	<g>
		<path d="M-9.91,130.939c1.953,0.65,1.086-2.172,1.086-2.172l-8.25-10.639l-2.388-0.865l-3.69-3.475
			c3.473-5.645-3.041-48.844-5.645-50.58c-2.605-1.736-16.281-10.854-16.281-10.854c-11.071-10.203-32.129-11.939-32.129-11.939
			c-0.651-2.171-11.505-4.775-11.505-4.775l-16.281-3.256c-5.862-3.04-18.886,0-18.886,0v-3.04l0.868-0.651
			c2.171-1.303,2.387-6.946,1.086-9.551c-1.303-2.605-2.171-0.218-2.822-0.435c-0.651-0.217-0.435-8.466-0.435-8.466
			c-2.604-15.196-20.406-12.374-20.406-12.374c-8.25,0.869-13.242,13.242-13.242,13.242s-1.737,10.42-0.217,12.374
			s3.691,4.56,3.691,4.56s0.216,4.124-0.434,8.032c-0.651,3.908,6.078,11.071,6.078,11.071l-7.163,6.942l0.651,3.257l-2.822,5.211
			c-9.118,9.768-1.736,34.299-1.736,34.299c-3.04,2.604-20.407,36.037-20.407,36.037c-5.427,13.893-31.695,39.074-31.695,39.074
			l-7.164,0.65h-2.171c0,0-1.303-1.736-4.125-0.867c-2.822,0.869-0.217,3.256,0.435,3.256c0.125,0,0.268,0.182,0.415,0.469
			c-9.621,3.441-16.506,12.635-16.506,23.438c0,13.746,11.143,24.889,24.888,24.889c13.746,0,24.888-11.143,24.888-24.889
			c0-8.119-3.888-15.326-9.903-19.869c5.629-3.039,33.093-28.564,33.093-28.564c13.893-8.686,26.485-52.32,26.485-52.32
			s15.196,1.521,15.848,1.521c0.65,0-0.651,4.559-0.651,4.559c0.217,3.475,4.992,9.553,5.427,9.553s-3.908,6.73-3.474,6.514
			c0.434-0.219-0.868,16.715-0.868,16.715l-15.196,9.984l3.473,5.861c-5.427-0.434-14.979,16.498-14.979,16.498
			c-0.217,4.125,0.217,12.592-1.737,19.104c-1.953,6.514-1.953,31.262-1.736,31.262s-4.994,13.24-4.994,13.24
			s-1.795-0.129-2.327-0.188c0.559,0.307,0.179,4.762,0.808,5.182c0.651,0.434-4.125,5.428-4.125,5.428s-2.605,2.604-3.256,3.039
			s-4.776,4.342-5.427,4.559c-0.651,0.217-2.388,0-7.597,1.953c-5.21,1.953-4.777,6.08-4.777,6.08s11.723,14.326,16.499,15.193
			c4.775,0.869,8.466-5.209,8.466-5.209l7.598-0.217c4.341-1.086,8.033-15.631,8.9-16.281c0.869-0.65,0-10.422,0.869-10.203
			c0.869,0.217-0.869-0.219-1.52-0.436c-0.651-0.217,0.217-8.465,0.217-8.465c0.217-10.205,12.374-25.4,12.374-25.4
			c6.947-7.813,3.908-25.832,3.908-25.832s7.381-3.906,7.815-3.906c0.435,0,4.559,3.037,4.559,3.037s3.04-4.123,4.124-4.342
			c1.086-0.217,0.435,8.033,0.435,8.033l4.342-0.652l0.434,1.736c-3.04,4.559,0.434,12.375,0.434,12.375
			c2.822,1.736,12.591,8.031,12.591,8.031c4.125,3.039,19.972,15.848,19.972,15.848l4.342,7.164l-0.869,4.992
			c0,0,2.389,1.303,3.039,1.086c0.651-0.219-0.434,3.039-0.434,3.039l-2.605,2.822l0.651,2.389l-1.737,4.342l-2.171,8.684
			c-9.551,8.898-6.513,11.723-6.513,11.723c2.388,6.729,14.11,2.172,14.11,2.172c12.156-1.738,14.762-12.809,14.762-12.809
			c1.954-6.295,4.342-6.947,5.21-6.73s9.986-12.809,9.986-12.809c0.434-6.729-12.156-13.023-12.156-13.023l-1.52-1.738h-3.69
			l-10.855-15.193c2.605-9.336-16.064-19.756-16.064-19.756l-0.217-3.689l10.854-1.086l0.652-22.359
			c6.947-0.434,20.405-14.977,20.405-14.977c8.032-4.994,6.513-28.873,6.513-28.873l-6.079-9.117l0.217-9.336
			c-1.52-3.256-7.598-8.684-7.598-8.684c1.953-2.17,0.217-11.723,0.217-11.723s-2.822-6.514-1.52-6.514
			c1.081,0,9.345,0.299,12.117,0.402c0.521,0.379,1.579,1.055,3.514,2.203c6.946,4.125,9.334,41.682,8.684,46.021
			c-0.652,4.342-2.605,7.381-2.605,7.381v9.117c-3.474,3.039,0.868,2.822,0.868,2.822c3.039,0.434,4.776-5.645,4.776-5.645
			c1.302-3.258,3.256-1.303,3.256-1.303c-0.216,1.521,5.861,11.939,5.861,11.939c1.954,2.605,3.256-0.869,3.256-0.869
			c-1.302,0-2.605-11.07-2.605-11.07l6.729,7.814c1.953,1.52,2.605-1.52,2.605-1.52l-6.295-9.77l7.381,6.947
			c3.257,1.086,2.605-2.172,2.605-2.172s-6.729-7.381-6.296-7.381C-14.903,127.248-11.864,130.287-9.91,130.939z"/>
		<path d="M115.354,459.327c-0.02-0.01-0.038-0.029-0.061-0.029C115.142,459.298,115.193,459.31,115.354,459.327z"/>
	</g>
	<path fill="#F89826" d="M246.715,249.314"/>
	<path d="M170.787,106.441l-8.587-10.93l-8.196-21.469c0,0,3.122-14.442-0.781-16.395c0,0-4.112-12.886-5.673-19.585
		c-0.058-1.597-0.281-3.15-0.66-4.643l-0.303-5.438c0,0,1.953-8.004-9.758-9.758c0,0,0.557,1.038,1.061,2.389
		c-3.531-2.399-7.793-3.802-12.384-3.802c-12.186,0-22.064,9.879-22.064,22.064c0,1.984,0.266,3.905,0.757,5.734
		c-0.542-0.62-0.547-0.625-0.547-0.625S74.377,55.303,74.768,58.817c0,0-12.101,4.685-16.785,8.197c0,0-4.293,6.245,0.391,10.929
		l10.539,17.175c0,0,11.709,19.126,20.688,21.468c0,0,1.561,9.758,0,9.758s7.026,8.978,7.026,8.978s-17.565,53.476-10.539,63.234
		l-0.39,8.587l-8.197,9.368c0,0-15.633,58.16-21.478,67.529c0,0,1.181,3.512,6.255,5.072l-1.171,21.078
		c0,0-3.513,23.813,0.39,30.059c0,0,11.71,37.861,8.587,43.717l-0.781,3.514c0,0-3.904,3.121-2.342,3.902s2.733,7.027,3.123,8.197
		c0.39,1.172,1.952,7.025,1.952,7.025l-0.391,22.25c0,0,4.294,10.539,14.052,0.391c9.758-10.148,6.245-13.66,5.855-17.176
		l-1.952-3.902l0.781-3.902l3.123-3.123l1.562-11.711c0,0-0.391-5.463-5.075-7.416l-2.342-3.514l-3.513-5.854
		c0,0,0-6.637,1.171-16.395c0,0,1.952-30.447-2.342-36.691c0,0,3.122-24.982,10.929-28.104l12.491,0.779
		c0,0,1.562,0.781,0.781-6.244c-0.781-7.025,2.342-14.443,2.342-14.443l3.123,26.154c0,0,8.587,1.949,7.417,1.949
		s2.341,16.785,5.464,21.078c0,0,0.001,11.711-1.561,15.613c0,0-1.951,23.422,3.123,28.105l-0.781,23.811l-3.123,4.293
		c0,0,0.781,31.617-4.684,40.986c0,0-2.733,13.43,4.293,13.43c0,0,15.225-1.721,19.908-16.943l1.561-7.416
		c0,0-2.342-9.758,4.294-10.93l3.903-8.586l-9.758-17.957l-2.732-0.389c0,0,3.903-23.813,7.807-30.059
		c3.904-6.244,2.342-20.297-0.391-30.055c-2.733-9.758-1.171-21.078,0-23.42c1.171-2.342,6.636-0.393,6.636-0.393l-3.123-47.619
		l3.513-10.148l1.171-12.1c0,0-7.025-20.689-5.854-20.689s1.561-8.196,1.561-8.196l0.781-11.32c0,0,9.367-27.324,10.929-32.008
		s3.123-5.075,3.123-5.075l-0.78-4.293l2.342-3.123l0.392-10.539C168.056,135.717,180.936,115.419,170.787,106.441z M127.851,71.311
		l-7.416,9.758l0.391,3.123l-3.123,4.684c0,0,0.453,0.744,2.404,0.744s-0.568,3.096-0.568,3.096l0.209,1.014l-1.654,8.809
		l6.636,3.513c0,0,1.171,4.293,0,5.074c-1.171,0.781-7.807-0.781-7.807-0.781s-7.417-12.49-19.907-14.052
		c0,0-12.101-16.785-19.907-17.956l11.71-12.491c0,0,11.318-10.146,14.442-8.587c3.124,1.559,3.124,1.559,3.124,1.559l6.636,3.903
		c0,0,10.929,1.952,13.271,0.391l2.732-1.562l-2.697-0.629c3.948-0.145,7.631-1.324,10.786-3.279
		c-0.07,5.106,0.013,9.803,0.498,10.937C138.78,71.311,127.851,71.311,127.851,71.311z"/>
</g>
<rect x="-279.5" y="203.578" fill="#FFFFFF" width="1320" height="318.001"/>
</svg>
