<?xml version="1.0" encoding="utf-8"?>
<!-- Generator: Adobe Illustrator 16.0.0, SVG Export Plug-In . SVG Version: 6.00 Build 0)  -->
<!DOCTYPE svg PUBLIC "-//W3C//DTD SVG 1.1//EN" "http://www.w3.org/Graphics/SVG/1.1/DTD/svg11.dtd">
<svg version="1.1" xmlns="http://www.w3.org/2000/svg" xmlns:xlink="http://www.w3.org/1999/xlink" x="0px" y="0px" width="792px"
	 height="576px" viewBox="0 0 792 576" enable-background="new 0 0 792 576" xml:space="preserve">
<g id="Layer_1">
</g>
<g id="Layer_2">
	<g>
		<path d="M714.529,413.927c0.386-0.097,0.232-0.103-0.135-0.066C714.438,413.909,714.483,413.938,714.529,413.927z"/>
		<path d="M760.194,494.694v-12.426c0,0,4.971-13.357-0.311-15.843c0,0-3.02-3.728-8.077-3.728c-1.554,0-7.145-1.243-7.145-1.243
			l-0.933,1.864l-1.553-2.175l-2.796-1.242l-10.873-18.639c0,0-2.797-16.153-17.707-24.23c0,0,2.485-2.796,1.554-2.796
			c-0.643,0,1.226-0.295,2.04-0.377c-1.006-1.109-1.606-17.206-2.536-21.133c2.373,2.623,12.154,10.326,11.369,10.326
			c-0.933,0-1.243,7.455,1.863,9.009s-0.311,7.455,0,9.319s9.941,12.114,10.873,15.532s0.62,14.601,4.97,16.775
			s20.191,10.252,18.018-13.357c0,0-5.592-10.563-6.523-10.563s-1.242-12.115-1.242-12.115s-5.28-7.767-9.63-9.319l-1.864,0.311
			c0,0-4.038-10.562-7.145-10.562l-1.864-6.523c0,0-5.281-12.426-5.902-12.426s3.728-13.048-15.532-25.163
			c0,0,1.321-2.645,0.788-2.559c2.36-1.279,25.993-16.043,13.502-46.833c0,0-4.661-3.417-4.039-3.417s-12.426-46.286-13.357-45.976
			s-4.039-4.66-1.864-8.077c0,0,5.901-9.63,0.311-10.251l-2.484-14.6c0,0,9.94-22.366,10.251-31.996l-0.311-8.387
			c0,0,7.456-6.834,7.456-17.396l0.62-36.037c0,0,4.66-14.29,5.592-13.979s4.038-13.358,4.038-13.358s0.552-4.267-0.201-7.784
			c-1.22-13.45-12.521-23.989-26.289-23.989c-14.584,0-26.405,11.822-26.405,26.405c0,14.583,11.821,26.405,26.405,26.405
			c2.227,0,4.388-0.279,6.453-0.798c-0.496,1.874-0.457,3.688,0.777,4.923l-0.311,4.039c0,0-11.493,34.792-9.319,44.112
			c0,0-12.426,16.464-9.94,22.056c0,0-3.466,1.65-6.908,4.95c-1.281,1.228-2.56,2.684-3.654,4.369l-1.242,0.932l-1.864-4.039
			l3.106-2.174l1.863-0.622c0,0,3.729-8.698-0.621-8.698l-1.242-13.668c0,0-1.242-7.145-12.736-9.319
			c0,0-11.494-0.621-13.979,12.115l-0.933,6.523c0,0-4.349,15.221,1.554,18.949l1.242-0.311l-0.311,10.873l-20.503,5.902
			c0,0-9.94,3.417-13.357,11.183c0,0-13.048,10.562-16.464,15.532c0,0-12.115-14.911-10.873-23.609c0,0,3.727-7.145,2.484-10.562
			l-3.105-5.281v-9.63c0,0-0.621-2.485-2.796-0.311s-0.933,4.97-0.933,4.97l-1.242,2.485l-1.242-9.94c0,0-3.106-8.387-5.281-7.456
			s-2.175,0.932-2.175,0.932h-2.796l-0.311,3.728l-2.795,0.621c0,0,0.311,4.349,2.174,9.319s-0.311,4.349-0.311,4.349l-1.863-5.592
			c0,0-1.244-2.795-1.865-0.932s1.865,13.047,5.281,17.396c3.418,4.349,15.843,48.461,19.26,50.014
			c3.418,1.553,7.146,1.864,12.427-1.864s10.872-7.145,10.872-7.145s11.494-10.252,11.805-13.047l2.175,0
			c0,0,2.796,21.435,2.175,21.745s14.91,42.559,15.843,51.567s0.622,20.191,0.622,20.191s1.242,8.697,10.872,6.213l-0.622,9.009
			c0,0,18.328,55.916,21.436,57.47l4.97,1.554c0,0,0.312,5.591,0.312,7.766s11.494,10.252,13.047,13.669s6.834,8.076,10.251,11.183
			s17.086,21.124,18.018,21.124s-2.176,2.484-1.243,3.106s4.971,2.485,4.971,2.485l-0.621,3.106c0,0-3.417,4.35-0.621,6.524
			s7.454,7.146,8.076,8.077s2.796,10.561,2.796,11.804s4.66,13.048,4.66,13.048s8.077,3.106,11.494,0.621s4.349-6.523,4.349-6.523
			S764.544,499.354,760.194,494.694z"/>
	</g>
	<g>
		<path d="M503.363,486.76c0,0-0.713-0.417-1.743-1.191C499.535,485.142,503.363,486.76,503.363,486.76z"/>
		<path d="M495.731,245.092C496.383,244.721,495.384,244.827,495.731,245.092L495.731,245.092z"/>
		<path d="M632.752,388.745c0.486-1.46-6.811-14.593-6.811-14.593s0.73-12.647,1.703-22.132c0.972-9.485-2.189-19.701-4.135-21.16
			c-1.946-1.459-2.676-0.729-5.107-6.566c-2.433-5.837-28.213-29.187-28.213-29.187s3.404-4.377,0-5.107
			c-3.404-0.729-10.944-3.891-12.404-5.837c-1.459-1.946-4.62-4.864-9.972-6.81c-5.352-1.946-4.378-4.621-9.972-8.27
			c-5.595-3.648-27.97-2.189-27.97-2.189l0.408-2.062l0.366-1.006c1.295-1.83,0.928-5.444,0.928-5.444l2.475-0.252l-0.285-4.369
			l1.459-4.621l1.216-4.621c0,0-0.242-0.973-2.431-0.244c-2.188,0.729-0.487,0-0.244,0c0.244,0-2.189-15.079-2.189-15.079
			c-2.188-5.837-9.241-8.269-9.241-8.269c-3.968-2.698-7.51-3.019-9.297-2.917c2.076-0.493,5.422-1.494-1.892,0.225
			c-9.241,2.172-13.376,10.961-13.376,10.961l-1.703,16.052c-0.169-0.057-0.271-0.109-0.334-0.157
			c-0.246,0.141-0.725,0.349-1.611,0.644c-3.647,1.216-0.973,6.81-0.973,6.81c0.973,1.946,4.378,7.782,4.378,7.782l2.188,0.243
			l0.729,7.783l1.217,3.648c-5.351-0.973-13.863,6.81-13.863,6.81c-5.593,6.566-12.16,7.783-12.16,7.783l-7.541,5.351
			c0,0,3.162,1.216,4.135,0.973c0.974-0.243-0.242,3.892-3.647,11.188c-3.405,7.296-6.323,8.512-11.431,17.268
			s-8.026,17.512-12.161,20.187c-4.135,2.676-19.7,5.108-19.7,5.108s-9.072,7.746-8.424,9.513c-2.016,1.709-3.783,3.697-5.244,5.909
			l-0.003,0.001l0.002,0.001c-0.917,1.388-1.715,2.861-2.374,4.407l0,0v0.001c-1.425,3.344-2.215,7.023-2.215,10.889
			c0,15.355,12.447,27.804,27.804,27.804c10.496,0,19.63-5.818,24.362-14.403h0.001h-0.001c2.191-3.975,3.441-8.541,3.441-13.4
			c0-4.232-0.95-8.24-2.642-11.831c0.106,0.038,0.212,0.066,0.315,0.081c3.404,0.486,2.918-1.217,2.918-1.217
			c-0.486-2.432-3.891-11.918-3.891-11.918l2.918-4.134c7.539-7.782,15.566-20.916,15.566-20.916
			c1.215-4.135,6.08-10.215,7.053-10.215s1.702,0.243,2.675,0c0.974-0.243,0.243,6.323,0.974,6.323
			c0.729,0,11.916,15.566,11.916,15.566s0.487,11.917-0.242,12.16s-2.189,1.215-2.189,1.215c-7.053,4.378-2.918,9.486-2.918,9.486
			L456.18,407.23c-2.189,6.081-5.838,8.755-5.838,8.755s5.352,3.405,6.081,2.919s-0.729,15.321-0.729,15.321
			c-10.458,6.08-15.809,41.347-15.809,41.347c-1.217,5.351,0.729,45.48,1.459,45.967s-8.025,9.486-9.242,9.972
			c-1.216,0.486-8.512,5.108-8.512,5.108l-6.811,5.107c0,0-2.919,0-1.459,6.811c1.459,6.81,5.35,4.521,17.512,4.521
			c12.16,0,12.403-5.009,18.483-7.441c6.081-2.432,6.323-2.918,6.323-2.918l-0.973-8.756l-1.216-1.946c0,0,0.973-2.432,1.702-2.675
			c0.73-0.242,0.486-6.566,0.486-6.566l-0.973-0.973c-3.404-6.811,2.676-22.619,2.676-22.619
			c7.539-9.485,14.836-44.265,14.105-44.508c-0.729-0.244,16.053-17.269,16.053-17.997c0-0.729,6.08,2.918,6.08,2.918l10.215-10.458
			c0,0-1.459,7.54-1.459,7.296c0-0.243-2.676,5.107-2.676,5.107l2.676,2.675l-1.945,2.189c-10.945,8.756-8.27,27.483-8.27,27.483
			c0.348,5.563,4.919,9.758,7.499,11.698c0.594,0.122,1.665,0.41,3.445,0.949c8.026,2.432,24.078-12.647,24.078-12.647
			c2.432,13.133,8.756,8.999,8.756,8.999c9.242,1.46,8.269-43.535,8.269-43.535c9.972-0.486,18.971-29.429,18.971-29.429
			c17.511-20.431,6.08-38.428,6.08-38.428c7.539-1.702,3.892-9.485,3.892-9.485l4.864-4.377l-2.432-9.729l2.188-3.648l-0.486-20.673
			l26.754,12.161c-1.946,3.647,5.594,20.43,5.594,20.43s0.729,22.376,0.973,22.376c0.242,0-2.188,8.998-2.188,8.998
			s-2.92,4.379-4.378,4.864c-6.092,2.03-3.405,5.595-3.405,5.595c0.972,2.189,8.999-2.92,8.999-2.92l-0.729,14.107
			c0.973,3.162,4.378,0.243,4.378,0.243l3.161-13.62h1.946l-0.243,1.945c0.972,3.892,5.107,13.62,5.107,13.62
			c3.162,0.729,3.404-1.945,3.404-1.945c-1.459-1.946-4.135-13.378-4.135-13.378l3.162,0.244c1.945,1.945,2.188,9.242,2.188,9.242
			c2.676,1.459,4.135,0,4.135,0l-0.974-9.242c0,0,1.946,0.486,2.676,0.486c0.73,0,2.189,4.378,2.189,4.378l2.141-0.973
			C640,393.61,632.266,390.204,632.752,388.745z M446.719,352.252c1.836,0.112,3.521,1.386,5.073,3.11
			C450.225,354.154,448.527,353.107,446.719,352.252z M444.991,351.047c0.498-0.332,0.769,0.355,0.892,0.826
			c-0.407-0.177-0.819-0.343-1.236-0.5C444.787,351.22,444.906,351.104,444.991,351.047z M439.277,349.944
			c-0.773-0.125-1.56-0.212-2.354-0.271c1.168-0.142,2.473-0.328,2.473-0.328L439.277,349.944z"/>
	</g>
	<g>
		<path d="M277.719,386.906c1.953,0.651,1.086-2.171,1.086-2.171l-8.25-10.638l-2.388-0.867l-3.69-3.474
			c3.473-5.644-3.041-48.844-5.645-50.58c-2.605-1.736-16.281-10.854-16.281-10.854c-11.071-10.203-32.129-11.939-32.129-11.939
			c-0.651-2.171-11.505-4.775-11.505-4.775l-16.281-3.257c-5.862-3.04-18.886,0-18.886,0v-3.04l0.868-0.651
			c2.171-1.303,2.387-6.946,1.086-9.551c-1.303-2.605-2.171-0.218-2.822-0.435c-0.651-0.217-0.435-8.466-0.435-8.466
			c-2.604-15.196-20.406-12.374-20.406-12.374c-8.25,0.869-13.242,13.242-13.242,13.242s-1.737,10.42-0.217,12.374
			c1.52,1.954,3.691,4.56,3.691,4.56s0.216,4.124-0.434,8.032c-0.651,3.908,6.078,11.071,6.078,11.071l-7.163,6.943l0.651,3.257
			l-2.822,5.211c-9.118,9.768-1.736,34.298-1.736,34.298c-3.04,2.605-20.407,36.037-20.407,36.037
			c-5.427,13.894-31.695,39.076-31.695,39.076l-7.164,0.65H65.41c0,0-1.303-1.737-4.125-0.868c-2.822,0.869-0.217,3.256,0.435,3.256
			c0.125,0,0.268,0.181,0.415,0.469c-9.621,3.441-16.506,12.634-16.506,23.438c0,13.745,11.143,24.889,24.888,24.889
			c13.746,0,24.888-11.144,24.888-24.889c0-8.119-3.888-15.326-9.903-19.87c5.629-3.038,33.093-28.565,33.093-28.565
			c13.893-8.685,26.485-52.319,26.485-52.319s15.196,1.521,15.848,1.521c0.65,0-0.651,4.559-0.651,4.559
			c0.217,3.474,4.992,9.552,5.427,9.552s-3.908,6.73-3.474,6.513c0.434-0.217-0.868,16.715-0.868,16.715l-15.196,9.986l3.473,5.861
			c-5.427-0.434-14.979,16.498-14.979,16.498c-0.217,4.125,0.217,12.591-1.737,19.104c-1.953,6.513-1.953,31.261-1.736,31.261
			c0.217,0-4.994,13.241-4.994,13.241s-1.795-0.129-2.327-0.188c0.559,0.306,0.179,4.761,0.808,5.181
			c0.651,0.434-4.125,5.427-4.125,5.427s-2.605,2.605-3.256,3.04c-0.651,0.435-4.776,4.341-5.427,4.558
			c-0.651,0.218-2.388,0-7.597,1.954c-5.21,1.953-4.777,6.079-4.777,6.079s11.723,14.327,16.499,15.195
			c4.775,0.868,8.466-5.21,8.466-5.21l7.598-0.217c4.341-1.086,8.033-15.631,8.9-16.281c0.869-0.651,0-10.421,0.869-10.203
			c0.869,0.217-0.869-0.218-1.52-0.435s0.217-8.466,0.217-8.466c0.217-10.204,12.374-25.399,12.374-25.399
			c6.947-7.814,3.908-25.833,3.908-25.833s7.381-3.907,7.815-3.907c0.435,0,4.559,3.039,4.559,3.039s3.04-4.124,4.124-4.342
			c1.086-0.217,0.435,8.032,0.435,8.032l4.342-0.651l0.434,1.736c-3.04,4.559,0.434,12.374,0.434,12.374
			c2.822,1.737,12.591,8.032,12.591,8.032c4.125,3.039,19.972,15.847,19.972,15.847l4.342,7.165l-0.869,4.992
			c0,0,2.389,1.302,3.039,1.086c0.651-0.219-0.434,3.038-0.434,3.038l-2.605,2.822l0.651,2.389l-1.737,4.342l-2.171,8.683
			c-9.551,8.899-6.513,11.723-6.513,11.723c2.388,6.73,14.11,2.172,14.11,2.172c12.156-1.737,14.762-12.809,14.762-12.809
			c1.954-6.295,4.342-6.947,5.21-6.73s9.986-12.808,9.986-12.808c0.434-6.729-12.156-13.024-12.156-13.024l-1.52-1.737h-3.69
			l-10.855-15.195c2.605-9.335-16.064-19.755-16.064-19.755l-0.217-3.69l10.854-1.085l0.652-22.359
			c6.947-0.435,20.405-14.978,20.405-14.978c8.032-4.993,6.513-28.873,6.513-28.873l-6.079-9.116l0.217-9.336
			c-1.52-3.256-7.598-8.684-7.598-8.684c1.953-2.17,0.217-11.723,0.217-11.723s-2.822-6.513-1.52-6.513
			c1.081,0,9.345,0.299,12.117,0.401c0.521,0.379,1.579,1.055,3.514,2.204c6.946,4.125,9.334,41.681,8.684,46.021
			c-0.652,4.342-2.605,7.382-2.605,7.382v9.117c-3.474,3.039,0.868,2.821,0.868,2.821c3.039,0.435,4.776-5.644,4.776-5.644
			c1.302-3.257,3.256-1.302,3.256-1.302c-0.216,1.52,5.861,11.939,5.861,11.939c1.954,2.605,3.256-0.869,3.256-0.869
			c-1.302,0-2.605-11.07-2.605-11.07l6.729,7.813c1.953,1.52,2.605-1.519,2.605-1.519l-6.295-9.77l7.381,6.948
			c3.257,1.086,2.605-2.172,2.605-2.172s-6.729-7.381-6.296-7.381C272.726,383.216,275.765,386.255,277.719,386.906z"/>
		<path d="M123.866,488.747c-0.02-0.011-0.038-0.029-0.061-0.029C123.655,488.718,123.706,488.729,123.866,488.747z"/>
	</g>
	<path fill="#F89826" d="M255.228,278.734"/>
	<path d="M409.767,200.47l-8.587-10.93l-8.196-21.469c0,0,3.122-14.442-0.781-16.394c0,0-4.112-12.886-5.673-19.585
		c-0.058-1.597-0.281-3.15-0.66-4.643l-0.303-5.438c0,0,1.953-8.004-9.758-9.758c0,0,0.557,1.038,1.061,2.389
		c-3.531-2.399-7.793-3.802-12.384-3.802c-12.186,0-22.064,9.879-22.064,22.064c0,1.984,0.266,3.905,0.757,5.734
		c-0.542-0.62-0.547-0.625-0.547-0.625s-29.275,11.319-28.885,14.833c0,0-12.101,4.685-16.785,8.197c0,0-4.293,6.245,0.391,10.929
		l10.539,17.175c0,0,11.709,19.126,20.688,21.468c0,0,1.561,9.758,0,9.758s7.026,8.978,7.026,8.978s-17.565,53.476-10.539,63.234
		l-0.39,8.587l-8.197,9.368c0,0-15.633,58.16-21.478,67.528c0,0,1.181,3.513,6.255,5.074l-1.171,21.078
		c0,0-3.513,23.811,0.39,30.057c0,0,11.71,37.862,8.587,43.718l-0.781,3.513c0,0-3.904,3.122-2.342,3.903s2.733,7.026,3.123,8.197
		s1.952,7.026,1.952,7.026l-0.391,22.249c0,0,4.294,10.54,14.052,0.391s6.245-13.661,5.855-17.175l-1.952-3.903l0.781-3.903
		l3.123-3.123l1.562-11.71c0,0-0.391-5.464-5.075-7.416l-2.342-3.514l-3.513-5.854c0,0,0-6.637,1.171-16.395
		c0,0,1.952-30.446-2.342-36.691c0,0,3.122-24.982,10.929-28.104l12.491,0.781c0,0,1.562,0.781,0.781-6.245
		s2.342-14.443,2.342-14.443l3.123,26.153c0,0,8.587,1.951,7.417,1.951s2.341,16.784,5.464,21.078c0,0,0.001,11.71-1.561,15.613
		c0,0-1.951,23.421,3.123,28.104l-0.781,23.811l-3.123,4.294c0,0,0.781,31.617-4.684,40.985c0,0-2.733,13.43,4.293,13.43
		c0,0,15.225-1.72,19.908-16.942l1.561-7.416c0,0-2.342-9.759,4.294-10.93l3.903-8.587l-9.758-17.956l-2.732-0.39
		c0,0,3.903-23.812,7.807-30.057s2.342-20.298-0.391-30.056s-1.171-21.078,0-23.42s6.636-0.391,6.636-0.391l-3.123-47.62
		l3.513-10.148l1.171-12.101c0,0-7.025-20.688-5.854-20.688s1.561-8.196,1.561-8.196l0.781-11.32c0,0,9.367-27.324,10.929-32.008
		s3.123-5.075,3.123-5.075l-0.78-4.293l2.342-3.123l0.391-10.539C407.035,229.746,419.915,209.448,409.767,200.47z M366.83,165.34
		l-7.416,9.758l0.391,3.123l-3.123,4.684c0,0,0.453,0.744,2.404,0.744s-0.568,3.096-0.568,3.096l0.209,1.014l-1.654,8.809
		l6.636,3.513c0,0,1.171,4.293,0,5.074s-7.807-0.781-7.807-0.781s-7.417-12.49-19.907-14.052c0,0-12.101-16.785-19.907-17.956
		l11.71-12.491c0,0,11.318-10.146,14.442-8.587s3.124,1.559,3.124,1.559l6.636,3.903c0,0,10.929,1.952,13.271,0.391l2.732-1.562
		l-2.697-0.629c3.948-0.145,7.631-1.324,10.786-3.279c-0.07,5.106,0.013,9.803,0.498,10.937
		C377.76,165.34,366.83,165.34,366.83,165.34z"/>
</g>
</svg>
