<?xml version="1.0" encoding="utf-8"?>
<!-- Generator: Adobe Illustrator 16.0.0, SVG Export Plug-In . SVG Version: 6.00 Build 0)  -->
<!DOCTYPE svg PUBLIC "-//W3C//DTD SVG 1.1//EN" "http://www.w3.org/Graphics/SVG/1.1/DTD/svg11.dtd">
<svg version="1.1" id="Layer_1" xmlns="http://www.w3.org/2000/svg" xmlns:xlink="http://www.w3.org/1999/xlink" x="0px" y="0px"
	 width="413.381px" height="210.539px" viewBox="575.369 -6.961 413.381 210.539"
	 enable-background="new 575.369 -6.961 413.381 210.539" xml:space="preserve">
<g id="Layer_1_1_">
</g>
<image display="none" overflow="visible" enable-background="new    " width="1367" height="769" xlink:href="4D2123F0.jpg"  transform="matrix(0.9991 0 0 0.9991 -285.9067 -95.166)">
</image>
<g id="Layer_2">
	<g>
		<path fill="#6C1A6F" d="M706.017,384.507c0.387-0.096,0.23-0.102-0.137-0.063C705.925,384.489,705.97,384.519,706.017,384.507z"/>
		<path fill="#6C1A6F" d="M1018.681,423.022v-12.427c0,0,4.973-13.356-0.311-15.844c0,0-3.021-3.727-8.078-3.727
			c-1.553,0-7.145-1.244-7.145-1.244l-0.934,1.865l-1.553-2.177l-2.797-1.241l-10.873-18.64c0,0-2.797-16.151-17.707-24.229
			c0,0,2.484-2.795,1.555-2.795c-0.643,0,1.227-0.296,2.039-0.378c-1.006-1.108-1.605-17.206-2.535-21.135
			c2.373,2.623,12.154,10.326,11.369,10.326c-0.934,0-1.242,7.455,1.863,9.01c3.105,1.556-0.313,7.455,0,9.318
			c0.311,1.865,9.939,12.115,10.873,15.533c0.932,3.418,0.619,14.6,4.969,16.774c4.352,2.174,20.191,10.252,18.02-13.356
			c0,0-5.594-10.564-6.523-10.564s-1.242-12.113-1.242-12.113s-5.279-7.768-9.629-9.319l-1.865,0.313c0,0-4.037-10.563-7.145-10.563
			l-1.863-6.523c0,0-5.281-12.426-5.902-12.426s3.729-13.049-15.531-25.164c0,0,1.32-2.645,0.787-2.559
			c2.359-1.279,25.994-16.043,13.502-46.834c0,0-4.66-3.416-4.039-3.416c0.623,0-12.426-46.286-13.355-45.977
			c-0.932,0.311-4.039-4.66-1.863-8.076c0,0,5.9-9.631,0.311-10.252l-2.484-14.6c0,0,9.941-22.366,10.252-31.996l-0.311-8.387
			c0,0,7.455-6.834,7.455-17.396l0.619-36.037c0,0,4.66-14.29,5.594-13.979c0.932,0.311,4.037-13.358,4.037-13.358
			s0.553-4.267-0.201-7.784c-1.221-13.45-12.521-23.989-26.289-23.989c-14.584,0-26.404,11.822-26.404,26.405
			s11.82,26.405,26.404,26.405c2.229,0,4.389-0.279,6.453-0.798c-0.496,1.874-0.457,3.688,0.777,4.923l-0.313,4.039
			c0,0-11.492,34.792-9.318,44.112c0,0-12.426,16.464-9.939,22.056c0,0-3.467,1.65-6.908,4.95c-1.281,1.229-2.561,2.684-3.654,4.369
			l-1.24,0.932l-1.865-4.039l3.105-2.174l1.863-0.622c0,0,3.729-8.698-0.621-8.698l-1.242-13.667c0,0-1.24-7.145-12.734-9.319
			c0,0-11.494-0.621-13.979,12.115l-0.934,6.523c0,0-4.35,15.222,1.555,18.949l1.242-0.312l-0.313,10.873l-20.502,5.902
			c0,0-9.939,3.417-13.357,11.184c0,0-13.049,10.562-16.465,15.531c0,0-12.113-14.911-10.871-23.609c0,0,3.727-7.145,2.482-10.562
			l-3.104-5.281v-9.63c0,0-0.621-2.484-2.797-0.311s-0.934,4.97-0.934,4.97l-1.242,2.485l-1.242-9.94c0,0-3.105-8.388-5.279-7.456
			c-2.176,0.932-2.176,0.932-2.176,0.932H835.4l-0.313,3.729l-2.795,0.621c0,0,0.313,4.349,2.174,9.318
			c1.863,4.971-0.311,4.35-0.311,4.35l-1.863-5.592c0,0-1.244-2.795-1.863-0.933c-0.621,1.863,1.863,13.048,5.279,17.396
			c3.418,4.349,15.844,48.461,19.262,50.014c3.418,1.554,7.146,1.864,12.428-1.864c5.279-3.728,10.871-7.145,10.871-7.145
			s11.494-10.252,11.805-13.047h2.176c0,0,2.795,21.435,2.176,21.744c-0.621,0.311,14.908,42.56,15.842,51.567
			c0.934,9.009,0.623,20.191,0.623,20.191s1.242,8.696,10.871,6.213l-0.621,9.008c0,0,18.328,55.916,21.436,57.471l4.971,1.556
			c0,0,0.313,5.59,0.313,7.766s11.494,10.252,13.047,13.668c1.553,3.418,6.834,8.076,10.252,11.185
			c3.416,3.107,17.086,21.125,18.018,21.125c0.934,0-2.176,2.481-1.242,3.104c0.934,0.621,4.971,2.484,4.971,2.484l-0.621,3.106
			c0,0-3.416,4.351-0.621,6.523c2.797,2.173,7.455,7.146,8.076,8.076c0.623,0.932,2.797,10.561,2.797,11.805
			c0,1.242,4.66,13.047,4.66,13.047s8.076,3.107,11.494,0.621c3.416-2.484,4.348-6.521,4.348-6.521
			S1023.031,427.683,1018.681,423.022z"/>
	</g>
	<g>
		<path fill="#6C1A6F" d="M494.851,457.341c0,0-0.713-0.418-1.742-1.19C491.021,455.722,494.851,457.341,494.851,457.341z"/>
		<path fill="#6C1A6F" d="M487.218,215.672C487.871,215.302,486.871,215.408,487.218,215.672L487.218,215.672z"/>
		<path fill="#6C1A6F" d="M801.087,197.896c0.486-1.459-6.811-14.592-6.811-14.592s0.729-12.648,1.701-22.134
			c0.973-9.483-2.188-19.702-4.135-21.161c-1.945-1.459-2.676-0.729-5.105-6.566c-2.436-5.836-28.213-29.186-28.213-29.186
			s3.402-4.377,0-5.107c-3.404-0.729-10.945-3.891-12.404-5.837s-4.621-4.864-9.973-6.81c-5.354-1.946-4.379-4.621-9.973-8.27
			c-5.596-3.648-27.971-2.189-27.971-2.189l0.408-2.062l0.367-1.006c1.295-1.83,0.928-5.444,0.928-5.444l2.475-0.252l-0.285-4.369
			l1.459-4.621l1.217-4.621c0,0-0.242-0.973-2.432-0.244c-2.188,0.729-0.486,0-0.244,0c0.244,0-2.188-15.079-2.188-15.079
			c-2.189-5.837-9.242-8.269-9.242-8.269c-3.967-2.698-7.51-3.019-9.297-2.917c2.076-0.493,5.422-1.494-1.893,0.225
			c-9.24,2.172-13.377,10.961-13.377,10.961L664.4,54.399c-0.168-0.057-0.271-0.109-0.334-0.157
			c-0.246,0.141-0.727,0.349-1.611,0.644c-3.646,1.216-0.973,6.81-0.973,6.81c0.973,1.946,4.379,7.782,4.379,7.782l2.188,0.243
			l0.729,7.783l1.217,3.648c-5.352-0.973-13.863,6.81-13.863,6.81c-5.592,6.566-12.16,7.783-12.16,7.783l-7.541,5.352
			c0,0,3.162,1.216,4.137,0.973c0.975-0.243-0.242,3.893-3.646,11.188c-3.406,7.297-6.324,8.512-11.432,17.268
			c-5.107,8.757-8.025,17.514-12.16,20.188c-4.137,2.677-19.701,5.106-19.701,5.106s-9.072,7.746-8.424,9.515
			c-2.018,1.709-3.783,3.697-5.244,5.908l-0.002,0.002h0.002c-0.918,1.389-1.715,2.86-2.375,4.407l0,0l0,0
			c-1.424,3.345-2.215,7.023-2.215,10.89c0,15.354,12.447,27.806,27.805,27.806c10.496,0,19.629-5.818,24.361-14.402h0.002h-0.002
			c2.189-3.976,3.439-8.541,3.439-13.4c0-4.232-0.947-8.24-2.641-11.832c0.104,0.039,0.211,0.066,0.314,0.082
			c3.402,0.486,2.918-1.217,2.918-1.217c-0.486-2.432-3.893-11.918-3.893-11.918l2.918-4.135
			c7.539-7.781,15.566-20.918,15.566-20.918c1.215-4.135,6.08-10.215,7.053-10.215s1.703,0.244,2.676,0
			c0.975-0.242,0.242,6.324,0.975,6.324c0.729,0,11.916,15.565,11.916,15.565s0.486,11.918-0.242,12.159
			c-0.729,0.244-2.189,1.216-2.189,1.216c-7.053,4.379-2.918,9.485-2.918,9.485l-38.912,45.24c-2.188,6.08-5.838,8.754-5.838,8.754
			s5.354,3.404,6.08,2.92c0.729-0.486-0.729,15.32-0.729,15.32c-10.459,6.08-15.811,41.348-15.811,41.348
			c-1.217,5.351,0.73,45.479,1.459,45.968c0.73,0.485-8.023,9.485-9.242,9.971c-1.215,0.486-8.512,5.109-8.512,5.109l-6.811,5.104
			c0,0-2.92,0-1.459,6.813c1.459,6.809,5.35,4.52,17.512,4.52c12.16,0,12.402-5.008,18.482-7.438
			c6.082-2.435,6.322-2.918,6.322-2.918L625,343.096l-1.215-1.946c0,0,0.973-2.433,1.701-2.675c0.729-0.241,0.484-6.565,0.484-6.565
			l-0.973-0.974c-3.404-6.813,2.676-22.618,2.676-22.618c7.539-9.486,14.836-44.267,14.105-44.509
			c-0.729-0.244,16.053-17.27,16.053-17.998c0-0.728,6.08,2.918,6.08,2.918l10.215-10.457c0,0-1.459,7.539-1.459,7.295
			c0-0.241-2.676,5.107-2.676,5.107l2.676,2.676l-1.945,2.188c-10.943,8.756-8.27,27.483-8.27,27.483
			c0.348,5.563,4.92,9.758,7.5,11.697c0.594,0.121,1.664,0.41,3.443,0.949c8.025,2.432,24.078-12.646,24.078-12.646
			c2.434,13.133,8.756,8.998,8.756,8.998c9.242,1.461,8.27-43.535,8.27-43.535c9.973-0.485,18.971-29.428,18.971-29.428
			c17.512-20.432,6.08-38.43,6.08-38.43c7.539-1.701,3.895-9.484,3.895-9.484l4.861-4.377l-2.432-9.729l2.188-3.648l-0.484-20.675
			l26.754,12.163c-1.945,3.646,5.594,20.43,5.594,20.43s0.73,22.377,0.975,22.377c0.24,0-2.188,8.998-2.188,8.998
			s-2.92,4.379-4.379,4.863c-6.092,2.029-3.404,5.596-3.404,5.596c0.973,2.188,8.998-2.92,8.998-2.92l-0.729,14.105
			c0.973,3.162,4.379,0.244,4.379,0.244l3.16-13.621h1.945l-0.242,1.945c0.973,3.893,5.105,13.621,5.105,13.621
			c3.162,0.729,3.404-1.945,3.404-1.945c-1.459-1.947-4.135-13.379-4.135-13.379l3.16,0.244c1.945,1.944,2.189,9.241,2.189,9.241
			c2.676,1.459,4.135,0,4.135,0l-0.975-9.241c0,0,1.945,0.485,2.676,0.485c0.732,0,2.189,4.377,2.189,4.377l2.141-0.973
			C808.335,202.762,800.601,199.355,801.087,197.896z M615.054,161.404c1.836,0.111,3.521,1.385,5.072,3.109
			C618.56,163.307,616.863,162.26,615.054,161.404z M613.326,160.199c0.498-0.332,0.77,0.355,0.893,0.826
			c-0.408-0.178-0.818-0.344-1.236-0.5C613.123,160.371,613.242,160.256,613.326,160.199z M607.613,159.096
			c-0.773-0.125-1.563-0.211-2.355-0.271c1.168-0.142,2.475-0.328,2.475-0.328L607.613,159.096z"/>
	</g>
	<g>
		<path fill="#6C1A6F" d="M-9.91,130.939c1.953,0.649,1.086-2.172,1.086-2.172l-8.25-10.64l-2.388-0.864l-3.69-3.476
			c3.473-5.645-3.041-48.844-5.645-50.58c-2.605-1.736-16.281-10.854-16.281-10.854c-11.071-10.203-32.129-11.939-32.129-11.939
			c-0.651-2.171-11.505-4.775-11.505-4.775l-16.281-3.256c-5.862-3.04-18.886,0-18.886,0v-3.04l0.868-0.651
			c2.171-1.303,2.387-6.946,1.086-9.551c-1.303-2.605-2.171-0.218-2.822-0.435s-0.435-8.466-0.435-8.466
			c-2.604-15.196-20.406-12.374-20.406-12.374c-8.25,0.869-13.242,13.242-13.242,13.242s-1.737,10.42-0.217,12.374
			s3.691,4.56,3.691,4.56s0.216,4.124-0.434,8.032c-0.651,3.908,6.078,11.071,6.078,11.071l-7.163,6.942l0.651,3.257l-2.822,5.211
			c-9.118,9.768-1.736,34.299-1.736,34.299c-3.04,2.604-20.407,36.038-20.407,36.038c-5.427,13.893-31.695,39.073-31.695,39.073
			l-7.164,0.65h-2.171c0,0-1.303-1.736-4.125-0.867c-2.822,0.869-0.217,3.256,0.435,3.256c0.125,0,0.268,0.183,0.415,0.47
			c-9.621,3.44-16.506,12.635-16.506,23.438c0,13.746,11.143,24.889,24.888,24.889c13.746,0,24.888-11.143,24.888-24.889
			c0-8.119-3.888-15.326-9.903-19.869c5.629-3.039,33.093-28.564,33.093-28.564c13.893-8.686,26.485-52.319,26.485-52.319
			s15.196,1.521,15.848,1.521c0.65,0-0.651,4.559-0.651,4.559c0.217,3.475,4.992,9.553,5.427,9.553c0.435,0-3.908,6.729-3.474,6.515
			c0.434-0.22-0.868,16.715-0.868,16.715l-15.196,9.983l3.473,5.861c-5.427-0.435-14.979,16.498-14.979,16.498
			c-0.217,4.125,0.217,12.592-1.737,19.104c-1.953,6.515-1.953,31.263-1.736,31.263c0.217,0-4.994,13.24-4.994,13.24
			s-1.795-0.13-2.327-0.188c0.559,0.307,0.179,4.762,0.808,5.182c0.651,0.435-4.125,5.429-4.125,5.429s-2.605,2.604-3.256,3.039
			c-0.651,0.435-4.776,4.342-5.427,4.559c-0.651,0.217-2.388,0-7.597,1.953c-5.21,1.953-4.777,6.08-4.777,6.08
			s11.723,14.326,16.499,15.192c4.775,0.869,8.466-5.209,8.466-5.209l7.598-0.217c4.341-1.086,8.033-15.631,8.9-16.281
			c0.869-0.649,0-10.422,0.869-10.202c0.869,0.217-0.869-0.22-1.52-0.437c-0.651-0.218,0.217-8.466,0.217-8.466
			c0.217-10.204,12.374-25.399,12.374-25.399c6.947-7.813,3.908-25.832,3.908-25.832s7.381-3.905,7.815-3.905
			c0.435,0,4.559,3.036,4.559,3.036s3.04-4.122,4.124-4.342c1.086-0.217,0.435,8.033,0.435,8.033l4.342-0.652l0.434,1.736
			c-3.04,4.56,0.434,12.375,0.434,12.375c2.822,1.735,12.591,8.03,12.591,8.03c4.125,3.039,19.972,15.849,19.972,15.849l4.342,7.164
			l-0.869,4.991c0,0,2.389,1.304,3.039,1.087c0.651-0.22-0.434,3.038-0.434,3.038l-2.605,2.822l0.651,2.39l-1.737,4.342
			l-2.171,8.685c-9.551,8.897-6.513,11.723-6.513,11.723c2.388,6.729,14.11,2.172,14.11,2.172
			c12.156-1.738,14.762-12.809,14.762-12.809c1.954-6.295,4.342-6.947,5.21-6.73s9.986-12.809,9.986-12.809
			c0.434-6.729-12.156-13.023-12.156-13.023l-1.52-1.738h-3.69l-10.855-15.193c2.605-9.336-16.064-19.756-16.064-19.756
			l-0.217-3.688l10.854-1.086l0.652-22.358c6.947-0.435,20.405-14.978,20.405-14.978c8.032-4.994,6.513-28.873,6.513-28.873
			l-6.079-9.117l0.217-9.336c-1.52-3.256-7.598-8.684-7.598-8.684c1.953-2.17,0.217-11.723,0.217-11.723s-2.822-6.514-1.52-6.514
			c1.081,0,9.345,0.299,12.117,0.402c0.521,0.379,1.579,1.055,3.514,2.203c6.946,4.125,9.334,41.682,8.684,46.021
			c-0.652,4.342-2.605,7.381-2.605,7.381v9.117c-3.474,3.039,0.868,2.821,0.868,2.821c3.039,0.435,4.776-5.645,4.776-5.645
			c1.302-3.258,3.256-1.303,3.256-1.303c-0.216,1.521,5.861,11.939,5.861,11.939c1.954,2.604,3.256-0.869,3.256-0.869
			c-1.302,0-2.605-11.07-2.605-11.07l6.729,7.814c1.953,1.52,2.605-1.521,2.605-1.521l-6.295-9.771l7.381,6.947
			c3.257,1.086,2.605-2.172,2.605-2.172s-6.729-7.381-6.296-7.381C-14.903,127.248-11.864,130.287-9.91,130.939z"/>
		<path fill="#6C1A6F" d="M115.354,459.327c-0.02-0.01-0.038-0.029-0.061-0.029C115.142,459.298,115.193,459.31,115.354,459.327z"/>
	</g>
	<path fill="#6C1A6F" d="M246.714,249.314"/>
	<path fill="#6C1A6F" d="M170.787,106.441l-8.587-10.93l-8.196-21.469c0,0,3.122-14.442-0.781-16.395c0,0-4.112-12.886-5.673-19.585
		c-0.058-1.597-0.281-3.15-0.66-4.643l-0.303-5.438c0,0,1.953-8.004-9.758-9.758c0,0,0.557,1.038,1.061,2.389
		c-3.531-2.399-7.793-3.802-12.384-3.802c-12.186,0-22.064,9.879-22.064,22.064c0,1.984,0.266,3.905,0.757,5.734
		c-0.542-0.62-0.547-0.625-0.547-0.625s-29.275,11.32-28.884,14.834c0,0-12.101,4.685-16.785,8.197c0,0-4.293,6.245,0.391,10.929
		l10.539,17.175c0,0,11.709,19.126,20.688,21.468c0,0,1.561,9.758,0,9.758s7.026,8.979,7.026,8.979s-17.565,53.476-10.539,63.234
		l-0.39,8.586l-8.197,9.368c0,0-15.633,58.16-21.478,67.529c0,0,1.181,3.512,6.255,5.071l-1.171,21.079
		c0,0-3.513,23.813,0.39,30.059c0,0,11.71,37.861,8.587,43.717l-0.781,3.515c0,0-3.904,3.12-2.342,3.901s2.733,7.027,3.123,8.197
		c0.39,1.172,1.952,7.024,1.952,7.024l-0.391,22.25c0,0,4.294,10.539,14.052,0.392c9.758-10.148,6.245-13.66,5.855-17.176
		l-1.952-3.902l0.781-3.902l3.123-3.123l1.562-11.711c0,0-0.391-5.463-5.075-7.416l-2.342-3.514l-3.513-5.854
		c0,0,0-6.638,1.171-16.396c0,0,1.952-30.447-2.342-36.691c0,0,3.122-24.981,10.929-28.104l12.491,0.779
		c0,0,1.562,0.781,0.781-6.244c-0.781-7.025,2.342-14.443,2.342-14.443l3.123,26.154c0,0,8.587,1.949,7.417,1.949
		s2.341,16.785,5.464,21.078c0,0,0.001,11.711-1.561,15.612c0,0-1.951,23.422,3.123,28.105l-0.781,23.811l-3.123,4.293
		c0,0,0.781,31.617-4.684,40.986c0,0-2.733,13.43,4.293,13.43c0,0,15.225-1.721,19.908-16.942l1.561-7.416
		c0,0-2.342-9.759,4.294-10.931l3.903-8.586l-9.758-17.957l-2.732-0.389c0,0,3.903-23.813,7.807-30.059
		c3.904-6.244,2.342-20.298-0.391-30.056s-1.171-21.078,0-23.42s6.636-0.393,6.636-0.393l-3.123-47.619l3.513-10.148l1.171-12.1
		c0,0-7.025-20.689-5.854-20.689s1.561-8.195,1.561-8.195l0.781-11.32c0,0,9.367-27.324,10.929-32.008s3.123-5.075,3.123-5.075
		l-0.78-4.293l2.342-3.123l0.392-10.539C168.056,135.717,180.936,115.419,170.787,106.441z M127.851,71.311l-7.416,9.758
		l0.391,3.123l-3.123,4.684c0,0,0.453,0.744,2.404,0.744c1.951,0-0.568,3.096-0.568,3.096l0.209,1.014l-1.654,8.809l6.636,3.513
		c0,0,1.171,4.293,0,5.074s-7.807-0.781-7.807-0.781s-7.417-12.49-19.907-14.052c0,0-12.101-16.785-19.907-17.956l11.71-12.491
		c0,0,11.318-10.146,14.442-8.587c3.124,1.559,3.124,1.559,3.124,1.559l6.636,3.903c0,0,10.929,1.952,13.271,0.391l2.732-1.562
		l-2.697-0.629c3.948-0.145,7.631-1.324,10.786-3.279c-0.07,5.106,0.013,9.803,0.498,10.937
		C138.78,71.311,127.851,71.311,127.851,71.311z"/>
</g>
<rect x="-319.5" y="203.579" fill="#FFFFFF" width="1320" height="318.001"/>
</svg>
