<?xml version="1.0" encoding="utf-8"?>
<!-- Generator: Adobe Illustrator 16.0.0, SVG Export Plug-In . SVG Version: 6.00 Build 0)  -->
<!DOCTYPE svg PUBLIC "-//W3C//DTD SVG 1.1//EN" "http://www.w3.org/Graphics/SVG/1.1/DTD/svg11.dtd">
<svg version="1.1" id="Layer_1" xmlns="http://www.w3.org/2000/svg" xmlns:xlink="http://www.w3.org/1999/xlink" x="0px" y="0px"
	 width="502px" height="820px" viewBox="271 -44.5 502 820" enable-background="new 271 -44.5 502 820" xml:space="preserve">
<image display="none" overflow="visible" enable-background="new    " width="640" height="372" xlink:href="39D9AACA.png"  transform="matrix(1.5369 0 0 1.5369 30.1777 92.127)">
</image>
<g>
	<rect x="271" y="-44.5" fill="none" stroke="#020202" stroke-width="4" stroke-miterlimit="10" width="502" height="820"/>
	<rect x="440" y="589.5" fill="none" stroke="#020202" stroke-width="4" stroke-miterlimit="10" width="163" height="186"/>
	<rect x="439" y="-44.5" fill="none" stroke="#020202" stroke-width="4" stroke-miterlimit="10" width="163" height="186"/>
	<line fill="none" stroke="#020202" stroke-width="4" stroke-miterlimit="10" x1="773" y1="365.5" x2="271" y2="365.5"/>
	<line fill="none" stroke="#020202" stroke-width="4" stroke-miterlimit="10" x1="773" y1="218.5" x2="742" y2="218.5"/>
	<line fill="none" stroke="#020202" stroke-width="4" stroke-miterlimit="10" x1="773" y1="513.5" x2="742" y2="513.5"/>
	<line fill="none" stroke="#020202" stroke-width="4" stroke-miterlimit="10" x1="302" y1="513.5" x2="271" y2="513.5"/>
	<line fill="none" stroke="#020202" stroke-width="4" stroke-miterlimit="10" x1="302" y1="218.5" x2="271" y2="218.5"/>
	<circle fill="none" stroke="#020202" stroke-width="4" stroke-miterlimit="10" cx="522" cy="365.5" r="27"/>
	<circle fill="none" stroke="#020202" stroke-width="4" stroke-miterlimit="10" cx="522" cy="365.5" r="64"/>
	<circle fill="none" stroke="#020202" stroke-width="4" stroke-miterlimit="10" cx="522" cy="141.5" r="61"/>
	<circle fill="none" stroke="#020202" stroke-width="4" stroke-miterlimit="10" cx="522" cy="589.5" r="64"/>
	<rect x="461" y="-44.5" fill="none" stroke="#020202" stroke-width="4" stroke-miterlimit="10" width="122" height="186"/>
	<rect x="458" y="589.5" fill="none" stroke="#020202" stroke-width="4" stroke-miterlimit="10" width="128" height="186"/>
	<circle fill="none" stroke="#020202" stroke-width="4" stroke-miterlimit="10" cx="520.5" cy="10.5" r="15.5"/>
	<circle fill="none" stroke="#020202" stroke-width="4" stroke-miterlimit="10" cx="520.5" cy="721.5" r="15.5"/>
	<line fill="none" stroke="#020202" stroke-width="4" stroke-miterlimit="10" x1="554" y1="-9.5" x2="488" y2="-9.5"/>
	<line fill="none" stroke="#020202" stroke-width="4" stroke-miterlimit="10" x1="554" y1="742.5" x2="488" y2="742.5"/>
	<path fill="none" stroke="#020202" stroke-width="4" stroke-miterlimit="10" d="M562.362-0.5c0,0,1.039,49-40.362,49
		C474,48.5,478-5,478-5"/>
	<path fill="none" stroke="#020202" stroke-width="4" stroke-miterlimit="10" d="M562.362,732c0,0,1.039-49-40.362-49
		c-48,0-44,53.5-44,53.5"/>
	<path fill="none" stroke="#020202" stroke-width="4" stroke-miterlimit="10" d="M736-44.5v150c0,0-44,149-214,153
		C363.028,262.241,302,107,302,107V-44.5"/>
	<path fill="none" stroke="#020202" stroke-width="4" stroke-miterlimit="10" d="M736,775.5v-150c0,0-44-149-214-153
		C363.028,468.76,302,624,302,624v151.5"/>
</g>
</svg>
